<svg width="76" height="70" viewBox="0 0 76 70" fill="none" xmlns="http://www.w3.org/2000/svg">
<path d="M48.1231 3.47124e-06C44.5715 0.00243495 40.8857 1.41537 37.511 3.32873C33.0821 5.83976 29.0451 9.4075 26.0795 13.1954C24.344 12.5199 22.5804 12.0046 20.8332 11.7786C17.8859 11.3972 14.9995 11.7791 12.4289 13.332C12.1055 13.5279 11.8233 13.785 11.5981 14.0888C7.18061 17.4215 5.81899 23.422 5.86819 29.4009C5.90009 33.2778 6.50974 37.2406 7.60368 40.8267H2.95484C2.56879 40.8212 2.1855 40.8926 1.82725 41.0365C1.469 41.1805 1.14294 41.3942 0.868004 41.6653C0.593072 41.9363 0.374757 42.2593 0.225746 42.6155C0.0767351 42.9717 0 43.3539 0 43.74C0 44.1261 0.0767351 44.5084 0.225746 44.8645C0.374757 45.2207 0.593072 45.5437 0.868004 45.8148C1.14294 46.0859 1.469 46.2996 1.82725 46.4436C2.1855 46.5875 2.56879 46.6588 2.95484 46.6534V49.5667C2.95484 60.8297 12.0853 69.9602 23.3483 69.9602H52.4817C63.7447 69.9602 72.8752 60.8297 72.8752 49.5667V46.6534C73.2612 46.6588 73.6445 46.5875 74.0028 46.4436C74.361 46.2996 74.6871 46.0859 74.962 45.8148C75.2369 45.5437 75.4552 45.2207 75.6043 44.8645C75.7533 44.5084 75.83 44.1261 75.83 43.74C75.83 43.3539 75.7533 42.9717 75.6043 42.6155C75.4552 42.2593 75.2369 41.9363 74.962 41.6653C74.6871 41.3942 74.361 41.1805 74.0028 41.0365C73.6445 40.8926 73.2612 40.8212 72.8752 40.8267H69.8139C70.0598 38.3421 69.8606 35.8632 69.1424 33.5547V33.549C67.8472 29.3883 64.9369 25.7168 60.9031 23.3295C61.3912 19.3402 61.3116 15.2481 60.4365 11.5396C59.5554 7.80553 57.6342 4.5377 54.6724 2.37279C54.3984 1.91223 54.0027 1.53617 53.5287 1.28597C52.2763 0.628179 50.9714 0.245378 49.6367 0.0853554C49.1361 0.0253469 48.6305 -0.0003438 48.1231 3.47124e-06ZM47.702 5.92912C48.9472 5.85228 50.0134 6.02319 50.8202 6.44692C52.5261 7.34253 53.9845 9.58141 54.7635 12.8825C55.3345 15.3023 55.5022 18.1836 55.2983 21.0649C54.3089 20.8289 53.2817 20.6603 52.22 20.5641C49.3831 20.3071 46.303 20.5696 43.0532 21.4859C41.9503 21.7972 40.8509 22.2235 39.7586 22.7036C37.4001 20.0707 34.5211 17.7083 31.4112 15.8299C33.82 13.0458 37.0841 10.2642 40.3845 8.39295C43.0573 6.87759 45.6267 6.05719 47.702 5.92912ZM18.8303 17.5711C19.2863 17.5786 19.7675 17.6176 20.2642 17.6849C22.2511 17.9542 24.5335 18.702 26.8648 19.9382C31.5273 22.4107 36.054 26.5983 38.1711 30.3284C40.3734 34.2124 41.0966 37.758 40.834 40.8267H13.8002C12.5724 37.4693 11.7269 33.2448 11.6949 29.3497C11.6506 23.9687 13.2068 19.6641 15.439 18.3165C16.298 17.7976 17.4623 17.5487 18.8303 17.5711ZM50.1431 26.2315C57.4706 26.0765 62.0519 30.3788 63.5775 35.2845C64.1144 37.0084 64.2492 38.9186 63.9758 40.8267H46.5071C46.7952 36.6885 45.869 32.142 43.2979 27.563C43.7487 27.3966 44.2045 27.2179 44.635 27.0964C46.6146 26.5382 48.4521 26.2673 50.1431 26.2315Z" fill="#D2DCEF"/>
</svg>
