<svg width="82" height="65" viewBox="0 0 82 65" fill="none" xmlns="http://www.w3.org/2000/svg">
<path d="M30.8319 0.00457939C26.4091 0.094344 21.8919 1.50292 17.6176 4.18102C10.8477 8.39689 5.52824 15.2393 2.4887 23.4637C-1.24164 33.7614 -0.757807 44.82 3.8015 53.0444C5.11403 55.4633 6.8405 57.6055 8.77475 59.3333C9.3274 59.8171 9.88004 60.3009 10.5018 60.7156H7.39314C6.21878 60.7156 5.32073 61.614 5.32073 62.7889C5.32073 63.9639 6.21878 64.8623 7.39314 64.8623H69.5655C70.7399 64.8623 71.6379 63.9639 71.6379 62.7889C71.6379 61.614 70.7399 60.7156 69.5655 60.7156H66.6647C75.8524 56.0159 82 47.8606 82 38.5996C82 26.9887 72.536 16.8977 58.5127 13.5112C57.4074 13.2348 56.3024 13.9267 56.026 15.0325C55.7497 16.1383 56.44 17.2438 57.5453 17.5203C65.3513 19.3863 71.4992 23.5333 74.8842 28.855C73.3644 28.7859 71.8446 29.5453 71.0848 31.1349C67.0781 39.2902 58.7194 45.7873 48.2882 48.9664C49.7389 46.6166 50.9138 44.1283 51.95 41.4329C58.2363 24.2239 52.2258 6.25494 38.617 1.27884C36.1042 0.371739 33.4856 -0.04928 30.8319 0.00457939ZM31.2259 4.18102C33.2292 4.18102 35.2323 4.52659 37.1665 5.21771C43.3147 7.42931 47.5283 12.9588 49.3244 19.9392C47.3211 19.2481 44.9726 20.0081 44.0746 22.427C44.0746 22.4961 44.0748 22.4956 44.0058 22.5647C43.5222 23.9469 42.9002 25.3294 42.3476 26.6426C41.3114 26.3661 40.2754 26.9193 39.8609 27.956C39.5846 28.7853 39.8612 29.6843 40.4829 30.2372C33.8512 41.9864 23.2819 49.657 12.5054 50.8319C10.7784 51.0393 9.53491 52.2142 9.05134 53.5964C8.4987 52.8362 7.94552 52.0071 7.46195 51.1087C3.45529 43.921 3.04081 34.1067 6.42575 24.9148C9.11988 17.5197 13.8179 11.4376 19.7588 7.70549C23.4892 5.35567 27.4265 4.18102 31.2259 4.18102ZM58.1673 33.1394C57.6176 33.1394 57.0905 33.3579 56.7018 33.7467C56.3132 34.1355 56.0948 34.6629 56.0948 35.2128C56.0948 35.7627 56.3132 36.2901 56.7018 36.6789C57.0905 37.0677 57.6176 37.2862 58.1673 37.2862C58.7169 37.2862 59.244 37.0677 59.6327 36.6789C60.0213 36.2901 60.2397 35.7627 60.2397 35.2128C60.2397 34.6629 60.0213 34.1355 59.6327 33.7467C59.244 33.3579 58.7169 33.1394 58.1673 33.1394ZM10.889 36.5856C10.4714 36.5947 10.0662 36.73 9.72675 36.9735C9.38726 37.217 9.12926 37.5575 8.98658 37.9503C8.79889 38.4669 8.82393 39.0369 9.05618 39.5351C9.28844 40.0332 9.70892 40.4187 10.2252 40.6068C10.4809 40.7 10.7525 40.7419 11.0245 40.73C11.2964 40.7182 11.5633 40.6528 11.81 40.5378C12.0567 40.4227 12.2784 40.2601 12.4623 40.0594C12.6462 39.8586 12.7887 39.6235 12.8818 39.3676C13.0695 38.851 13.0445 38.281 12.8122 37.7829C12.5799 37.2847 12.1595 36.8992 11.6432 36.7111C11.4018 36.6228 11.146 36.5803 10.889 36.5856ZM17.905 43.5994C17.4873 43.6086 17.0822 43.7438 16.7427 43.9873C16.4032 44.2309 16.1452 44.5713 16.0026 44.9641C15.8149 45.4807 15.8399 46.0508 16.0722 46.5489C16.3044 47.0471 16.7249 47.4325 17.2412 47.6206C17.4969 47.7138 17.7685 47.7557 18.0405 47.7438C18.3124 47.732 18.5793 47.6667 18.826 47.5516C19.0727 47.4365 19.2943 47.274 19.4782 47.0732C19.6621 46.8724 19.8047 46.6374 19.8978 46.3815C20.0855 45.8649 20.0604 45.2948 19.8282 44.7967C19.5959 44.2985 19.1754 43.9131 18.6592 43.725C18.4177 43.6367 18.162 43.5941 17.905 43.5994ZM79.7576 60.7439C79.2492 60.7666 78.771 60.975 78.4084 61.3378C78.3393 61.407 78.2008 61.5452 78.1318 61.6834C78.0627 61.8216 77.9931 61.8907 77.924 62.029C77.8549 62.1672 77.8554 62.3052 77.7864 62.4434C77.7864 62.5816 77.7176 62.7196 77.7176 62.8578C77.7176 62.996 77.7173 63.134 77.7864 63.2722C77.7864 63.4104 77.8549 63.5484 77.924 63.6866C77.9931 63.8248 78.0627 63.963 78.1318 64.0322C78.2008 64.1704 78.2702 64.2395 78.4084 64.3777C78.8228 64.7924 79.3061 65 79.8588 65C80.4114 65 80.9638 64.7924 81.3092 64.3777C81.3783 64.3086 81.5167 64.1704 81.5858 64.0322C81.6549 63.8939 81.7231 63.8248 81.7922 63.6866C81.8613 63.5484 81.8621 63.4104 81.9312 63.2722C81.9312 63.134 82 62.996 82 62.8578C82 62.3049 81.7925 61.7523 81.378 61.4067L81.1014 61.13L80.6872 60.9221C80.549 60.853 80.4112 60.8535 80.273 60.7844C80.1003 60.7499 79.927 60.7364 79.7576 60.7439Z" fill="#85B1CF"/>
</svg>
