<svg width="76" height="76" viewBox="0 0 76 76" fill="none" xmlns="http://www.w3.org/2000/svg">
<path d="M12.321 30.3334C11.8205 30.3334 11.3162 30.2026 10.8574 29.9258C9.5114 29.1163 9.07915 27.3684 9.88677 26.0223L13.1969 20.5187C14.0652 19.0741 14.0064 17.2427 13.0433 15.8569C10.5257 12.2206 10.7171 7.28769 13.5135 3.86002L15.8056 1.0485C16.799 -0.17052 18.5886 -0.35252 19.8058 0.639001C21.0229 1.63052 21.2068 3.42398 20.2153 4.63921L17.9213 7.45263C16.7175 8.92758 16.634 11.0509 17.7204 12.6169C19.9518 15.8379 20.0901 20.0903 18.073 23.4497L14.761 28.9552C14.2263 29.8424 13.286 30.3334 12.321 30.3334ZM23.696 30.3334C23.1955 30.3334 22.6912 30.2026 22.2324 29.9258C20.8864 29.1163 20.4541 27.3684 21.2618 26.0223L24.5719 20.5187C25.4402 19.0741 25.3814 17.2427 24.4183 15.8569C21.9007 12.2206 22.0921 7.28769 24.8885 3.86002L27.1806 1.0485C28.1721 -0.17052 29.9655 -0.35252 31.1808 0.639001C32.3998 1.63052 32.5818 3.42398 31.5903 4.63921L29.2963 7.45263C28.0925 8.92758 28.009 11.0509 29.0954 12.6169C31.3268 15.8379 31.4651 20.0903 29.448 23.4497L26.136 28.9552C25.6013 29.8424 24.661 30.3334 23.696 30.3334ZM35.071 30.3334C34.5705 30.3334 34.0662 30.2026 33.6074 29.9258C32.2614 29.1163 31.8291 27.3684 32.6368 26.0223L35.9469 20.5187C36.8152 19.0741 36.7564 17.2427 35.7933 15.8569C33.2757 12.2206 33.4671 7.28769 36.2635 3.86002L38.5556 1.0485C39.549 -0.17052 41.3386 -0.35252 42.5558 0.639001C43.7729 1.63052 43.9568 3.42398 42.9653 4.63921L40.6713 7.45263C39.4675 8.92758 39.384 11.0509 40.4704 12.6169C42.7018 15.8379 42.8401 20.0903 40.823 23.4497L37.511 28.9552C36.9763 29.8424 36.036 30.3334 35.071 30.3334ZM69.1979 37.9168H64.5702H55.2086H47.1664H43.6042H6.63542C2.97646 37.9168 0 40.8932 0 44.5522C0 61.8005 14.033 75.8334 31.2813 75.8334H48.3438C64.5285 75.8334 75.8333 62.9702 75.8333 44.5522C75.8333 40.8932 72.8569 37.9168 69.1979 37.9168ZM59.0002 34.1251L74.0513 19.0741C75.1622 17.9631 75.1622 16.164 74.0513 15.053C72.9403 13.9421 71.1411 13.9421 70.0302 15.053L50.9581 34.1251H59.0002Z" fill="#ADBFFF"/>
</svg>
