<svg width="64" height="64" viewBox="0 0 64 64" fill="none" xmlns="http://www.w3.org/2000/svg">
<path d="M32.6307 0C26.8883 0 24.2516 5.14434 21.7087 10.1118C19.2595 14.8973 16.7531 19.87 11.4953 21.5969C2.20947 24.645 -0.500196 32.2705 0.0730029 38.4083C0.11469 38.8401 0.432555 41.5397 2.11568 44.4005C3.38714 43.9324 4.47101 43.5371 4.49185 43.5267C16.2372 38.5384 30.2233 30.2471 33.8813 10.4031C34.0168 9.6645 34.7307 9.18075 35.4655 9.3212C36.2054 9.45644 36.6848 10.1638 36.5493 10.9025C32.6099 32.2549 16.972 41.1651 5.53403 46.0234C5.45065 46.0546 4.71592 46.3355 3.78317 46.6892C4.372 47.3446 5.03899 47.9792 5.82584 48.5618C7.67571 49.935 10.5521 50.684 14.1216 50.684C21.667 50.684 32.3389 47.3498 37.9667 40.0312C45.5173 30.2159 48.3729 19.6671 45.8456 11.1105C44.3605 6.07542 41.1037 2.3355 36.8828 0.83225C35.3456 0.286086 33.9491 0 32.6307 0ZM44.2615 35.2042C43.0473 37.3732 41.6404 39.5371 40.0094 41.6541C38.7014 43.355 37.1382 44.8322 35.4238 46.1482C41.1089 48.4473 47.2108 49.3628 53.9329 48.8531C54.6989 48.7958 55.3346 49.3524 55.3919 50.1014C55.4493 50.8505 54.8917 51.5006 54.1413 51.5579C52.8803 51.6515 51.6245 51.6827 50.3895 51.6827C44.1103 51.6827 38.1908 50.4343 32.7558 47.9792C27.7742 51.0221 21.9588 52.7074 16.9146 53.1808C19.1918 55.8596 22.2923 58.684 26.2526 60.3381C32.0732 62.7724 37.7739 64 42.9692 64C47.982 64 52.5155 62.8609 56.2674 60.5878C60.7644 57.8674 63.5626 53.7269 63.9378 49.2692C64.7299 39.974 57.815 38.4915 51.0982 37.0351C48.7949 36.5358 46.4292 36.0156 44.2615 35.2042Z" fill="#FFDBAA"/>
</svg>
