<svg width="41" height="82" viewBox="0 0 41 82" fill="none" xmlns="http://www.w3.org/2000/svg">
<path d="M13.9773 0C12.4323 0 11.1818 1.2505 11.1818 2.79545V6.52273C11.1818 7.60314 11.7999 8.52878 12.696 8.99423C5.24556 12.0663 0 19.404 0 27.9618V28.1802V28.8864C0 31.1358 1.60273 33.1131 3.72727 33.5455L3.71271 56.0074C1.59562 56.4472 0 58.3225 0 60.5682V71.75C0 77.4117 4.58827 82 10.25 82H30.75C36.4117 82 41 77.4117 41 71.75V60.5682C41 58.3188 39.3973 56.4361 37.2727 56.0037V55.9091H13.9773C12.4323 55.9091 11.1818 54.6586 11.1818 53.1136C11.1818 51.5687 12.4323 50.3182 13.9773 50.3182H37.2727V39.1364H13.9773C12.4323 39.1364 11.1818 37.8859 11.1818 36.3409C11.1818 34.796 12.4323 33.5455 13.9773 33.5455H37.2727C39.3973 33.1131 41 31.1358 41 28.8864V28.6352C41 19.9541 35.7665 12.2437 28.2203 9.04155C29.1631 8.59249 29.8182 7.63738 29.8182 6.52273V2.79545C29.8182 1.2505 28.5677 0 27.0227 0H13.9773Z" fill="#8EFDBD"/>
</svg>
