<svg width="56" height="73" viewBox="0 0 56 73" fill="none" xmlns="http://www.w3.org/2000/svg">
<path d="M24.5258 0.000261191C24.1911 0.00504783 23.8606 0.075622 23.5532 0.207955C23.2458 0.340287 22.9675 0.531786 22.7343 0.771518C22.501 1.01125 22.3173 1.29452 22.1936 1.60515C22.07 1.91579 22.0088 2.2477 22.0136 2.58195C22.0136 5.97559 20.8487 6.53236 18.7248 8.22918C16.6008 9.926 13.5178 12.7629 13.5178 17.8533C13.513 18.1906 13.5754 18.5255 13.7014 18.8384C13.8273 19.1514 14.0143 19.4363 14.2514 19.6765C14.4886 19.9167 14.7711 20.1074 15.0827 20.2376C15.3944 20.3678 15.7288 20.4348 16.0665 20.4348C16.4043 20.4348 16.7387 20.3678 17.0503 20.2376C17.3619 20.1074 17.6445 19.9167 17.8816 19.6765C18.1188 19.4363 18.3058 19.1514 18.4317 18.8384C18.5576 18.5255 18.62 18.1906 18.6153 17.8533C18.6153 14.4597 19.7834 13.9029 21.9074 12.2061C24.0313 10.5093 27.111 7.67241 27.111 2.58195C27.1159 2.24157 27.0524 1.90367 26.9242 1.58824C26.796 1.27281 26.6058 0.986265 26.3647 0.745555C26.1237 0.504845 25.8367 0.314862 25.5209 0.186847C25.205 0.0588313 24.8666 -0.00461509 24.5258 0.000261191ZM34.7207 3.3939C34.386 3.39869 34.0555 3.46926 33.7481 3.6016C33.4408 3.73393 33.1625 3.92543 32.9292 4.16516C32.6959 4.40489 32.5122 4.68816 32.3885 4.99879C32.2649 5.30943 32.2037 5.64134 32.2085 5.97559C32.2085 7.2482 31.962 7.78062 31.6145 8.27226C31.2669 8.76391 30.6819 9.24329 29.8323 9.8796C28.9828 10.5159 27.8686 11.3091 26.9418 12.6204C26.0149 13.9316 25.4119 15.7323 25.4119 17.8533C25.4071 18.1906 25.4695 18.5255 25.5954 18.8384C25.7214 19.1514 25.9084 19.4363 26.1455 19.6765C26.3827 19.9167 26.6652 20.1074 26.9768 20.2376C27.2884 20.3678 27.6228 20.4348 27.9606 20.4348C28.2984 20.4348 28.6328 20.3678 28.9444 20.2376C29.256 20.1074 29.5386 19.9167 29.7757 19.6765C30.0129 19.4363 30.1998 19.1514 30.3258 18.8384C30.4517 18.5255 30.5141 18.1906 30.5093 17.8533C30.5093 16.5807 30.7592 16.0483 31.1067 15.5567C31.4542 15.065 32.0392 14.5856 32.8888 13.9493C33.7384 13.313 34.8525 12.5198 35.7794 11.2086C36.7062 9.89733 37.306 8.09661 37.306 5.97559C37.3109 5.63521 37.2473 5.29731 37.1191 4.98188C36.9909 4.66645 36.8007 4.37991 36.5597 4.1392C36.3186 3.89849 36.0317 3.7085 35.7158 3.58049C35.3999 3.45247 35.0616 3.38903 34.7207 3.3939ZM5.95124 23.7922C4.34724 23.7922 2.83985 24.4232 1.71331 25.5686C0.57997 26.7207 -0.0263104 28.2433 0.000876127 29.857C0.39508 52.3127 4.55647 63.9086 7.00325 68.8209C8.26573 71.3594 10.943 73 13.8231 73H30.1443C33.0515 73 35.6579 71.4095 36.9476 68.8507C37.9723 66.8159 39.2917 63.5492 40.5184 58.9217C40.8399 57.632 41.5118 56.7834 42.6789 55.8926C43.9051 54.9567 45.6493 54.1112 47.5142 53.1784C49.3791 52.2455 51.3884 51.2235 53.0763 49.5527C54.7641 47.882 56 45.4129 56 42.4572C56 37.8017 52.1661 33.9731 47.5042 33.9731C46.2333 33.9731 45.0122 34.2568 43.8769 34.7321C43.9478 33.1611 44.0028 31.5495 44.0329 29.857C44.0618 28.2416 43.4538 26.7207 42.3205 25.5686C41.1939 24.4232 39.6865 23.7922 38.0825 23.7922H20.3177V42.4572C22.1953 42.4572 23.716 43.9759 23.716 45.8509V50.9413C23.716 52.8163 22.1953 54.335 20.3177 54.335H15.2203C13.3427 54.335 11.822 52.8163 11.822 50.9413V45.8509C11.822 43.9759 13.3427 42.4572 15.2203 42.4572V23.7922H5.95124ZM47.5042 39.0636C49.4113 39.0636 50.9025 40.5528 50.9025 42.4572C50.9025 44.1678 50.4246 45.0074 49.4855 45.937C48.5463 46.8667 47.016 47.7352 45.2309 48.6281C44.3188 49.0843 43.346 49.5484 42.3669 50.0797C42.7657 47.5849 43.1227 44.8669 43.399 41.8474C43.5595 41.2846 43.9354 40.7133 44.5407 40.2036C45.3668 39.508 46.5507 39.0636 47.5042 39.0636Z" fill="#B1BEFF"/>
</svg>
