<svg width="76" height="76" viewBox="0 0 76 76" fill="none" xmlns="http://www.w3.org/2000/svg">
<path d="M53.611 0.0018257C53.0452 0.0207341 52.495 0.191479 52.0179 0.496166C51.5408 0.800852 51.1544 1.22826 50.8993 1.7336L42.9862 16.9005C41.4132 16.2052 39.7028 15.8158 37.9203 15.8158C34.5156 15.8158 31.3316 17.1746 28.9903 19.5443C27.7944 19.1625 26.5546 18.9712 25.2987 18.9712C20.2627 18.9712 15.8334 21.9066 13.8234 26.4283C9.30173 28.4383 6.36632 32.8676 6.36632 37.9036C6.36632 38.999 6.5237 40.052 6.79773 41.059H3.21093C2.79297 41.0517 2.37772 41.1275 1.9893 41.282C1.60088 41.4365 1.24703 41.6666 0.948294 41.959C0.649561 42.2514 0.4119 42.6003 0.249112 42.9853C0.0863252 43.3703 0.00165697 43.7838 2.40782e-05 44.2019C-0.00160881 44.6199 0.079826 45.0341 0.2396 45.4204C0.399374 45.8066 0.634304 46.1573 0.930744 46.4521C1.22718 46.7468 1.57923 46.9797 1.96643 47.1372C2.35363 47.2948 2.76827 47.3738 3.18628 47.3698C3.18628 58.1355 9.94077 67.3019 19.4316 70.9305C19.1289 71.4109 18.9614 71.9641 18.9468 72.5318C18.9322 73.0994 19.071 73.6605 19.3487 74.1559C19.6263 74.6512 20.0325 75.0625 20.5243 75.3462C21.0162 75.63 21.5755 75.7759 22.1433 75.7683H53.6973C54.2659 75.7751 54.8259 75.628 55.3178 75.3427C55.8097 75.0574 56.2154 74.6444 56.492 74.1475C56.7686 73.6505 56.9057 73.0881 56.8889 72.5197C56.8721 71.9512 56.702 71.3979 56.3966 70.9181C65.8689 67.28 72.605 58.1218 72.605 47.3698H72.6297C73.0478 47.3757 73.4629 47.2984 73.8509 47.1425C74.239 46.9866 74.5921 46.7551 74.8899 46.4615C75.1877 46.1679 75.4241 45.8181 75.5855 45.4323C75.7469 45.0465 75.83 44.6325 75.83 44.2144C75.83 43.7962 75.7469 43.3822 75.5855 42.9964C75.4241 42.6107 75.1877 42.2608 74.8899 41.9672C74.5921 41.6736 74.239 41.4421 73.8509 41.2862C73.4629 41.1303 73.0478 41.0531 72.6297 41.059H69.0429C69.3169 40.052 69.4743 38.999 69.4743 37.9036C69.4743 34.3411 67.9851 31.1016 65.5239 28.7887L61.3269 33.5895C62.4471 34.7255 63.1635 36.2217 63.1635 37.9036C63.1635 39.0591 62.8264 40.1265 62.2822 41.059H13.5584C13.0142 40.1265 12.6771 39.0591 12.6771 37.9036C12.6771 35.1237 14.4905 32.7117 17.1884 31.9071C18.2012 31.601 18.9961 30.8061 19.3022 29.7932C20.1068 27.0953 22.5188 25.282 25.2987 25.282C26.3495 25.282 27.383 25.5676 28.3801 26.1325C29.8474 26.9655 31.7086 26.5017 32.6079 25.0786C33.7785 23.2327 35.7588 22.1266 37.9203 22.1266C40.0817 22.1266 42.0651 23.2327 43.2389 25.0786C44.1382 26.5017 45.9932 26.9655 47.4604 26.1325C48.8556 25.3439 50.3479 25.1717 51.7252 25.4484L48.1692 29.5159C47.8771 29.8243 47.6502 30.1886 47.5023 30.5868C47.3543 30.9851 47.2883 31.4091 47.3082 31.8334C47.3281 32.2578 47.4334 32.6737 47.6179 33.0564C47.8024 33.4391 48.0623 33.7805 48.382 34.0603C48.7016 34.3402 49.0745 34.5525 49.4782 34.6848C49.8819 34.817 50.3082 34.8663 50.7314 34.8299C51.1547 34.7934 51.5662 34.6718 51.9414 34.4725C52.3165 34.2731 52.6475 34 52.9146 33.6697L75.0024 8.42649C75.4084 7.97397 75.675 7.41381 75.7703 6.81335C75.8655 6.21289 75.7853 5.59771 75.5392 5.04177C75.2931 4.48584 74.8917 4.01281 74.3832 3.67958C73.8747 3.34635 73.2808 3.1671 72.6728 3.16339C72.2137 3.16141 71.7596 3.25965 71.3424 3.45125C70.9251 3.64284 70.5547 3.92318 70.257 4.27271L56.1994 20.3332C54.4905 19.4647 52.5705 18.9712 50.5419 18.9712C50.0092 18.9712 49.4822 19.0254 48.958 19.0944L56.4952 4.6548C56.7591 4.16608 56.8892 3.61637 56.8726 3.06123C56.856 2.50608 56.6931 1.96516 56.4005 1.4931C56.1079 1.02104 55.6959 0.634567 55.2061 0.372723C54.7163 0.110879 54.1661 -0.0170619 53.611 0.0018257Z" fill="#ADD8FF"/>
</svg>
